# xmcd CD database file
#
# Track frame offsets:
#	150
#	19145
#	39966
#	58911
#
# Disc length: 1062 seconds
#
# Revision: 2
# Processed by: cddbd v1.5.2PL0 Copyright (c) Steve Scherf et al.
# Submitted via: CDex 1.70beta2
#
DISCID=2c042404
DTITLE=乙女新党 - もうそう★こうかんにっき
DYEAR=2013
DGENRE=アイドル
TTITLE0=もうそう★こうかんにっき
TTITLE1=ときめき☆パラドックス
TTITLE2=もうそう★こうかんにっき（off vocal）
TTITLE3=ときめき☆パラドックス（off vocal）
EXTD=YEAR: 2013
EXTT0=
EXTT1=
EXTT2=
EXTT3=
PLAYORDER=
